<svg width="25" height="25" viewBox="0 0 25 25" fill="none" xmlns="http://www.w3.org/2000/svg">
<mask id="mask0_3_3076" style="mask-type:alpha" maskUnits="userSpaceOnUse" x="0" y="0" width="25" height="25">
<rect x="0.0215454" y="0.256348" width="24" height="24" fill="#D9D9D9"/>
</mask>
<g mask="url(#mask0_3_3076)">
<path d="M8.42155 17.2563L12.0215 13.6563L15.6215 17.2563L17.0215 15.8563L13.4215 12.2563L17.0215 8.65635L15.6215 7.25635L12.0215 10.8563L8.42155 7.25635L7.02155 8.65635L10.6215 12.2563L7.02155 15.8563L8.42155 17.2563ZM12.0215 22.2563C10.6382 22.2563 9.33821 21.9938 8.12155 21.4688C6.90488 20.9438 5.84655 20.2313 4.94655 19.3313C4.04655 18.4313 3.33405 17.373 2.80905 16.1563C2.28405 14.9397 2.02155 13.6397 2.02155 12.2563C2.02155 10.873 2.28405 9.57301 2.80905 8.35635C3.33405 7.13968 4.04655 6.08135 4.94655 5.18135C5.84655 4.28135 6.90488 3.56885 8.12155 3.04385C9.33821 2.51885 10.6382 2.25635 12.0215 2.25635C13.4049 2.25635 14.7049 2.51885 15.9215 3.04385C17.1382 3.56885 18.1965 4.28135 19.0965 5.18135C19.9965 6.08135 20.709 7.13968 21.234 8.35635C21.759 9.57301 22.0215 10.873 22.0215 12.2563C22.0215 13.6397 21.759 14.9397 21.234 16.1563C20.709 17.373 19.9965 18.4313 19.0965 19.3313C18.1965 20.2313 17.1382 20.9438 15.9215 21.4688C14.7049 21.9938 13.4049 22.2563 12.0215 22.2563ZM12.0215 20.2563C14.2549 20.2563 16.1465 19.4813 17.6965 17.9313C19.2465 16.3813 20.0215 14.4897 20.0215 12.2563C20.0215 10.023 19.2465 8.13135 17.6965 6.58135C16.1465 5.03135 14.2549 4.25635 12.0215 4.25635C9.78821 4.25635 7.89655 5.03135 6.34655 6.58135C4.79655 8.13135 4.02155 10.023 4.02155 12.2563C4.02155 14.4897 4.79655 16.3813 6.34655 17.9313C7.89655 19.4813 9.78821 20.2563 12.0215 20.2563Z" fill="#1C1B1F"/>
</g>
</svg>
