<svg width="24" height="25" viewBox="0 0 24 25" fill="none" xmlns="http://www.w3.org/2000/svg">
<mask id="mask0_20_613" style="mask-type:alpha" maskUnits="userSpaceOnUse" x="0" y="0" width="24" height="25">
<rect y="0.849609" width="24" height="24" fill="#D9D9D9"/>
</mask>
<g mask="url(#mask0_20_613)">
<path d="M12 12.8496C10.9 12.8496 9.95833 12.4579 9.175 11.6746C8.39167 10.8913 8 9.94961 8 8.84961C8 7.74961 8.39167 6.80794 9.175 6.02461C9.95833 5.24128 10.9 4.84961 12 4.84961C13.1 4.84961 14.0417 5.24128 14.825 6.02461C15.6083 6.80794 16 7.74961 16 8.84961C16 9.94961 15.6083 10.8913 14.825 11.6746C14.0417 12.4579 13.1 12.8496 12 12.8496ZM4 20.8496V18.0496C4 17.4829 4.14167 16.9621 4.425 16.4871C4.70833 16.0121 5.1 15.6496 5.6 15.3996C6.6 14.8996 7.6375 14.5163 8.7125 14.2496C9.7875 13.9829 10.8833 13.8496 12 13.8496C13.1167 13.8496 14.2125 13.9829 15.2875 14.2496C16.3625 14.5163 17.4 14.8996 18.4 15.3996C18.9 15.6496 19.2917 16.0121 19.575 16.4871C19.8583 16.9621 20 17.4829 20 18.0496V20.8496H4ZM12 10.8496C12.55 10.8496 13.0208 10.6538 13.4125 10.2621C13.8042 9.87044 14 9.39961 14 8.84961C14 8.29961 13.8042 7.82878 13.4125 7.43711C13.0208 7.04544 12.55 6.84961 12 6.84961C11.45 6.84961 10.9792 7.04544 10.5875 7.43711C10.1958 7.82878 10 8.29961 10 8.84961C10 9.39961 10.1958 9.87044 10.5875 10.2621C10.9792 10.6538 11.45 10.8496 12 10.8496ZM16 16.5496V18.8496H18V18.0496C18 17.8663 17.9583 17.6996 17.875 17.5496C17.7917 17.3996 17.6667 17.2829 17.5 17.1996C17.2667 17.0663 17.0208 16.9454 16.7625 16.8371C16.5042 16.7288 16.25 16.6329 16 16.5496ZM10 16.0246V17.3496H14V16.0246C13.6667 15.9579 13.3333 15.9121 13 15.8871C12.6667 15.8621 12.3333 15.8496 12 15.8496C11.6667 15.8496 11.3333 15.8621 11 15.8871C10.6667 15.9121 10.3333 15.9579 10 16.0246ZM6 18.8496H8V16.5496C7.75 16.6329 7.49583 16.7288 7.2375 16.8371C6.97917 16.9454 6.73333 17.0663 6.5 17.1996C6.33333 17.2829 6.20833 17.3996 6.125 17.5496C6.04167 17.6996 6 17.8663 6 18.0496V18.8496Z" fill="white"/>
</g>
</svg>
