<svg width="24" height="25" viewBox="0 0 24 25" fill="none" xmlns="http://www.w3.org/2000/svg">
<mask id="mask0_2_1892" style="mask-type:alpha" maskUnits="userSpaceOnUse" x="0" y="0" width="24" height="25">
<rect y="0.609863" width="24" height="24" fill="#D9D9D9"/>
</mask>
<g mask="url(#mask0_2_1892)">
<path d="M9.675 14.3099L10.55 11.4599L8.25 9.60986H11.1L12 6.80986L12.9 9.60986H15.75L13.425 11.4599L14.3 14.3099L12 12.5349L9.675 14.3099ZM6 23.6099V15.8849C5.36667 15.1849 4.875 14.3849 4.525 13.4849C4.175 12.5849 4 11.6265 4 10.6099C4 8.37653 4.775 6.48486 6.325 4.93486C7.875 3.38486 9.76667 2.60986 12 2.60986C14.2333 2.60986 16.125 3.38486 17.675 4.93486C19.225 6.48486 20 8.37653 20 10.6099C20 11.6265 19.825 12.5849 19.475 13.4849C19.125 14.3849 18.6333 15.1849 18 15.8849V23.6099L12 21.6099L6 23.6099ZM12 16.6099C13.6667 16.6099 15.0833 16.0265 16.25 14.8599C17.4167 13.6932 18 12.2765 18 10.6099C18 8.9432 17.4167 7.52653 16.25 6.35986C15.0833 5.1932 13.6667 4.60986 12 4.60986C10.3333 4.60986 8.91667 5.1932 7.75 6.35986C6.58333 7.52653 6 8.9432 6 10.6099C6 12.2765 6.58333 13.6932 7.75 14.8599C8.91667 16.0265 10.3333 16.6099 12 16.6099ZM8 20.6349L12 19.6099L16 20.6349V17.5349C15.4167 17.8682 14.7875 18.1307 14.1125 18.3224C13.4375 18.514 12.7333 18.6099 12 18.6099C11.2667 18.6099 10.5625 18.514 9.8875 18.3224C9.2125 18.1307 8.58333 17.8682 8 17.5349V20.6349Z" fill="white"/>
</g>
</svg>
