<svg width="24" height="25" viewBox="0 0 24 25" fill="none" xmlns="http://www.w3.org/2000/svg">
<mask id="mask0_19_153" style="mask-type:alpha" maskUnits="userSpaceOnUse" x="0" y="0" width="24" height="25">
<rect y="0.0793457" width="24" height="24" fill="#D9D9D9"/>
</mask>
<g mask="url(#mask0_19_153)">
<path d="M8.55 20.0793H15.45L16.45 16.0793H7.55L8.55 20.0793ZM8.55 22.0793C8.08333 22.0793 7.675 21.9377 7.325 21.6543C6.975 21.371 6.74167 21.0043 6.625 20.5543L5.5 16.0793H18.5L17.375 20.5543C17.2583 21.0043 17.025 21.371 16.675 21.6543C16.325 21.9377 15.9167 22.0793 15.45 22.0793H8.55ZM5 14.0793H19V12.0793H5V14.0793ZM12 8.07935C12 6.41268 12.5833 4.99601 13.75 3.82935C14.9167 2.66268 16.3333 2.07935 18 2.07935C18 3.57935 17.525 4.87935 16.575 5.97935C15.625 7.07935 14.4333 7.74601 13 7.97935V10.0793H21V14.0793C21 14.6293 20.8042 15.1002 20.4125 15.4918C20.0208 15.8835 19.55 16.0793 19 16.0793H5C4.45 16.0793 3.97917 15.8835 3.5875 15.4918C3.19583 15.1002 3 14.6293 3 14.0793V10.0793H11V7.97935C9.56667 7.74601 8.375 7.07935 7.425 5.97935C6.475 4.87935 6 3.57935 6 2.07935C7.66667 2.07935 9.08333 2.66268 10.25 3.82935C11.4167 4.99601 12 6.41268 12 8.07935Z" fill="white"/>
</g>
</svg>
