<svg width="24" height="25" viewBox="0 0 24 25" fill="none" xmlns="http://www.w3.org/2000/svg">
<mask id="mask0_125_26" style="mask-type:alpha" maskUnits="userSpaceOnUse" x="0" y="0" width="24" height="25">
<rect y="0.899292" width="24" height="24" fill="#D9D9D9"/>
</mask>
<g mask="url(#mask0_125_26)">
<path d="M12 17.8993C12.2833 17.8993 12.5208 17.8035 12.7125 17.6118C12.9042 17.4201 13 17.1826 13 16.8993C13 16.616 12.9042 16.3785 12.7125 16.1868C12.5208 15.9951 12.2833 15.8993 12 15.8993C11.7167 15.8993 11.4792 15.9951 11.2875 16.1868C11.0958 16.3785 11 16.616 11 16.8993C11 17.1826 11.0958 17.4201 11.2875 17.6118C11.4792 17.8035 11.7167 17.8993 12 17.8993ZM12 13.8993C12.2833 13.8993 12.5208 13.8035 12.7125 13.6118C12.9042 13.4201 13 13.1826 13 12.8993C13 12.616 12.9042 12.3785 12.7125 12.1868C12.5208 11.9951 12.2833 11.8993 12 11.8993C11.7167 11.8993 11.4792 11.9951 11.2875 12.1868C11.0958 12.3785 11 12.616 11 12.8993C11 13.1826 11.0958 13.4201 11.2875 13.6118C11.4792 13.8035 11.7167 13.8993 12 13.8993ZM12 9.89929C12.2833 9.89929 12.5208 9.80346 12.7125 9.61179C12.9042 9.42013 13 9.18263 13 8.89929C13 8.61596 12.9042 8.37846 12.7125 8.18679C12.5208 7.99513 12.2833 7.89929 12 7.89929C11.7167 7.89929 11.4792 7.99513 11.2875 8.18679C11.0958 8.37846 11 8.61596 11 8.89929C11 9.18263 11.0958 9.42013 11.2875 9.61179C11.4792 9.80346 11.7167 9.89929 12 9.89929ZM20 20.8993H4C3.45 20.8993 2.97917 20.7035 2.5875 20.3118C2.19583 19.9201 2 19.4493 2 18.8993V14.8993C2.55 14.8993 3.02083 14.7035 3.4125 14.3118C3.80417 13.9201 4 13.4493 4 12.8993C4 12.3493 3.80417 11.8785 3.4125 11.4868C3.02083 11.0951 2.55 10.8993 2 10.8993V6.89929C2 6.34929 2.19583 5.87846 2.5875 5.48679C2.97917 5.09513 3.45 4.89929 4 4.89929H20C20.55 4.89929 21.0208 5.09513 21.4125 5.48679C21.8042 5.87846 22 6.34929 22 6.89929V10.8993C21.45 10.8993 20.9792 11.0951 20.5875 11.4868C20.1958 11.8785 20 12.3493 20 12.8993C20 13.4493 20.1958 13.9201 20.5875 14.3118C20.9792 14.7035 21.45 14.8993 22 14.8993V18.8993C22 19.4493 21.8042 19.9201 21.4125 20.3118C21.0208 20.7035 20.55 20.8993 20 20.8993ZM20 18.8993V16.3493C19.3833 15.9826 18.8958 15.4951 18.5375 14.8868C18.1792 14.2785 18 13.616 18 12.8993C18 12.1826 18.1792 11.5201 18.5375 10.9118C18.8958 10.3035 19.3833 9.81596 20 9.44929V6.89929H4V9.44929C4.61667 9.81596 5.10417 10.3035 5.4625 10.9118C5.82083 11.5201 6 12.1826 6 12.8993C6 13.616 5.82083 14.2785 5.4625 14.8868C5.10417 15.4951 4.61667 15.9826 4 16.3493V18.8993H20Z" fill="white"/>
</g>
</svg>
