<svg width="21" height="22" viewBox="0 0 21 22" fill="none" xmlns="http://www.w3.org/2000/svg">
<mask id="mask0_1_167" style="mask-type:alpha" maskUnits="userSpaceOnUse" x="0" y="0" width="21" height="22">
<rect y="0.939697" width="21" height="21" fill="#D9D9D9"/>
</mask>
<g mask="url(#mask0_1_167)">
<path d="M5.25 20.1897C4.52083 20.1897 3.90104 19.9345 3.39062 19.4241C2.88021 18.9137 2.625 18.2939 2.625 17.5647V14.9397H5.25V2.6897H18.375V17.5647C18.375 18.2939 18.1198 18.9137 17.6094 19.4241C17.099 19.9345 16.4792 20.1897 15.75 20.1897H5.25ZM15.75 18.4397C15.9979 18.4397 16.2057 18.3558 16.3734 18.1881C16.5411 18.0204 16.625 17.8126 16.625 17.5647V4.4397H7V14.9397H14.875V17.5647C14.875 17.8126 14.9589 18.0204 15.1266 18.1881C15.2943 18.3558 15.5021 18.4397 15.75 18.4397ZM7.875 8.8147V7.0647H15.75V8.8147H7.875ZM7.875 11.4397V9.6897H15.75V11.4397H7.875ZM5.25 18.4397H13.125V16.6897H4.375V17.5647C4.375 17.8126 4.45885 18.0204 4.62656 18.1881C4.79427 18.3558 5.00208 18.4397 5.25 18.4397ZM5.25 18.4397H4.375H13.125H5.25Z" fill="white"/>
</g>
</svg>
