<svg width="24" height="25" viewBox="0 0 24 25" fill="none" xmlns="http://www.w3.org/2000/svg">
<mask id="mask0_28_508" style="mask-type:alpha" maskUnits="userSpaceOnUse" x="0" y="0" width="24" height="25">
<rect y="0.286133" width="24" height="24" fill="#D9D9D9"/>
</mask>
<g mask="url(#mask0_28_508)">
<path d="M6.5 11.2861L12 2.28613L17.5 11.2861H6.5ZM17.5 22.2861C16.25 22.2861 15.1875 21.8486 14.3125 20.9736C13.4375 20.0986 13 19.0361 13 17.7861C13 16.5361 13.4375 15.4736 14.3125 14.5986C15.1875 13.7236 16.25 13.2861 17.5 13.2861C18.75 13.2861 19.8125 13.7236 20.6875 14.5986C21.5625 15.4736 22 16.5361 22 17.7861C22 19.0361 21.5625 20.0986 20.6875 20.9736C19.8125 21.8486 18.75 22.2861 17.5 22.2861ZM3 21.7861V13.7861H11V21.7861H3ZM17.5 20.2861C18.2 20.2861 18.7917 20.0445 19.275 19.5611C19.7583 19.0778 20 18.4861 20 17.7861C20 17.0861 19.7583 16.4945 19.275 16.0111C18.7917 15.5278 18.2 15.2861 17.5 15.2861C16.8 15.2861 16.2083 15.5278 15.725 16.0111C15.2417 16.4945 15 17.0861 15 17.7861C15 18.4861 15.2417 19.0778 15.725 19.5611C16.2083 20.0445 16.8 20.2861 17.5 20.2861ZM5 19.7861H9V15.7861H5V19.7861ZM10.05 9.28613H13.95L12 6.13613L10.05 9.28613Z" fill="white"/>
</g>
</svg>
