<svg width="24" height="25" viewBox="0 0 24 25" fill="none" xmlns="http://www.w3.org/2000/svg">
<mask id="mask0_19_147" style="mask-type:alpha" maskUnits="userSpaceOnUse" x="0" y="0" width="24" height="25">
<rect y="0.669434" width="24" height="24" fill="#D9D9D9"/>
</mask>
<g mask="url(#mask0_19_147)">
<path d="M12.925 11.7194L8.675 7.46939L10.1 6.06939L12.925 8.89439L18.6 3.24438L20 4.64438L12.925 11.7194ZM14 23.1694L7 21.2194V22.6694H1V11.6694H8.95L15.15 13.9694C15.7 14.1694 16.1458 14.5194 16.4875 15.0194C16.8292 15.5194 17 16.0694 17 16.6694H19C19.8333 16.6694 20.5417 16.9444 21.125 17.4944C21.7083 18.0444 22 18.7694 22 19.6694V20.6694L14 23.1694ZM3 20.6694H5V13.6694H3V20.6694ZM13.95 21.0694L19.9 19.2194C19.85 19.0361 19.7375 18.8986 19.5625 18.8069C19.3875 18.7152 19.2 18.6694 19 18.6694H14.2C13.6833 18.6694 13.2167 18.6361 12.8 18.5694C12.3833 18.5027 11.9333 18.3861 11.45 18.2194L9.725 17.6194L10.3 15.7194L12.3 16.3694C12.6 16.4694 12.95 16.5444 13.35 16.5944C13.75 16.6444 14.3 16.6694 15 16.6694C15 16.4861 14.9458 16.3111 14.8375 16.1444C14.7292 15.9777 14.6 15.8694 14.45 15.8194L8.6 13.6694H7V19.1694L13.95 21.0694Z" fill="white"/>
</g>
</svg>
